<?xml version="1.0" standalone="no"?>
<!DOCTYPE svg PUBLIC "-//W3C//DTD SVG 20010904//EN"
 "http://www.w3.org/TR/2001/REC-SVG-20010904/DTD/svg10.dtd">
<svg version="1.0" xmlns="http://www.w3.org/2000/svg"
 width="279.000000pt" height="390.000000pt" viewBox="0 0 279.000000 390.000000"
 preserveAspectRatio="xMidYMid meet">

<g transform="translate(0.000000,390.000000) scale(0.100000,-0.100000)"
fill="#000000" stroke="none">
<path d="M2138 3853 c-16 -2 -28 -9 -28 -14 0 -5 -13 -9 -30 -9 -16 0 -30 -4
-30 -10 0 -5 -11 -10 -25 -10 -14 0 -25 -4 -25 -10 0 -5 -11 -10 -24 -10 -14
0 -28 -4 -31 -10 -3 -5 -17 -10 -30 -10 -13 0 -27 -4 -30 -10 -3 -5 -17 -10
-31 -10 -13 0 -24 -4 -24 -10 0 -5 -10 -10 -23 -10 -13 0 -27 -3 -30 -7 -6 -6
-101 -40 -227 -83 -30 -10 -79 -27 -108 -39 -29 -12 -59 -21 -66 -21 -7 0 -19
23 -26 51 -8 27 -18 52 -22 55 -4 3 -8 15 -8 28 0 19 -4 22 -30 18 -17 -2 -30
-8 -30 -13 0 -5 -13 -9 -30 -9 -16 0 -30 -4 -30 -10 0 -5 -13 -10 -30 -10 -16
0 -30 -4 -30 -10 0 -5 -11 -10 -25 -10 -14 0 -25 -4 -25 -10 0 -5 -13 -10 -30
-10 -16 0 -30 -4 -30 -10 0 -5 -11 -10 -24 -10 -14 0 -28 -4 -31 -10 -3 -5
-17 -10 -31 -10 -13 0 -24 -4 -24 -10 0 -5 -11 -10 -24 -10 l-24 0 20 -57 c11
-32 24 -68 30 -80 14 -29 6 -38 -54 -57 -52 -17 -86 -30 -120 -47 -10 -5 -27
-9 -37 -9 -11 0 -23 -4 -26 -10 -3 -5 -15 -10 -26 -10 -10 0 -28 -4 -39 -10
-11 -5 -29 -14 -40 -20 -11 -5 -29 -10 -39 -10 -11 0 -23 -4 -26 -10 -3 -5
-17 -10 -31 -10 -13 0 -24 -4 -24 -10 0 -5 -11 -10 -25 -10 -14 0 -25 -4 -25
-10 0 -5 -13 -10 -30 -10 -16 0 -30 -4 -30 -10 0 -5 -13 -10 -30 -10 -16 0
-30 -4 -30 -10 0 -5 -11 -10 -25 -10 -14 0 -25 -4 -25 -10 0 -5 -13 -10 -30
-10 -16 0 -30 -4 -30 -10 0 -5 -11 -10 -25 -10 -13 0 -28 -6 -32 -13 -4 -8
-16 -16 -26 -20 -9 -4 -22 -18 -27 -32 -5 -14 -14 -25 -20 -25 -5 0 -9 -3 -9
-7 1 -5 0 -10 -1 -13 -16 -43 -14 -85 9 -145 77 -205 150 -394 161 -420 4 -11
18 -47 30 -80 12 -33 26 -68 31 -77 5 -10 9 -25 9 -33 0 -8 5 -15 10 -15 6 0
10 -11 10 -24 0 -14 5 -28 10 -31 6 -3 10 -17 10 -31 0 -13 5 -24 10 -24 6 0
10 -11 10 -25 0 -14 5 -25 10 -25 6 0 10 -11 10 -24 0 -14 5 -28 10 -31 6 -3
10 -17 10 -31 0 -13 5 -24 10 -24 6 0 10 -12 10 -26 0 -14 4 -23 10 -19 6 4
10 -7 10 -24 0 -17 5 -31 10 -31 6 0 10 -11 10 -25 0 -15 6 -25 14 -25 8 0 18
-9 21 -20 3 -11 10 -20 14 -20 5 0 26 -8 47 -17 52 -22 103 -18 199 16 44 16
131 48 193 70 62 23 148 53 190 68 42 14 81 30 87 34 5 5 18 9 30 9 12 0 25 4
30 8 6 5 44 19 85 32 41 13 79 27 85 32 13 11 25 10 25 -2 0 -6 9 -30 20 -52
11 -23 20 -49 20 -58 0 -9 3 -20 7 -24 4 -3 12 -21 19 -39 26 -68 73 -195 94
-252 12 -33 28 -73 35 -90 7 -16 28 -68 45 -115 61 -164 73 -195 82 -204 4 -6
8 -20 8 -32 0 -13 5 -26 10 -29 6 -3 10 -13 10 -21 0 -8 9 -34 20 -56 11 -23
20 -50 20 -59 0 -10 5 -21 10 -24 6 -3 10 -15 10 -26 0 -10 5 -19 10 -19 6 0
10 -11 10 -25 0 -14 5 -25 10 -25 6 0 10 -13 10 -30 0 -16 5 -30 10 -30 6 0
10 -11 10 -25 0 -14 5 -25 10 -25 6 0 10 -11 10 -25 0 -14 5 -25 10 -25 6 0
10 -13 10 -30 0 -16 5 -30 10 -30 6 0 10 -12 10 -26 0 -14 4 -23 10 -19 6 3
10 -5 10 -19 0 -14 5 -28 10 -31 6 -3 10 -17 10 -30 0 -13 5 -27 10 -30 6 -3
10 -15 10 -26 0 -10 5 -19 10 -19 6 0 10 -11 10 -24 0 -14 5 -28 10 -31 6 -3
10 -13 10 -21 0 -8 9 -33 19 -57 11 -23 27 -64 36 -92 9 -27 22 -63 30 -80 7
-16 24 -58 37 -92 19 -52 27 -63 45 -63 13 0 23 5 23 10 0 6 11 10 24 10 14 0
28 5 31 10 3 6 17 10 31 10 13 0 24 5 24 10 0 6 11 10 24 10 14 0 27 4 30 8 3
4 28 14 56 22 28 8 53 18 56 22 3 4 14 8 25 8 10 0 27 4 37 9 9 5 25 12 34 15
22 6 17 29 -25 126 -9 19 -23 58 -32 85 -9 28 -24 68 -34 90 -10 22 -24 58
-31 80 -7 22 -16 45 -20 50 -4 6 -15 35 -25 65 -10 30 -24 69 -31 85 -13 29
-46 114 -86 225 -11 30 -28 74 -39 97 -10 24 -19 49 -19 57 0 8 -4 18 -10 21
-5 3 -10 17 -10 31 0 13 -4 24 -10 24 -5 0 -10 9 -10 19 0 11 -4 23 -10 26 -5
3 -10 17 -10 30 0 13 -4 27 -10 30 -5 3 -10 17 -10 31 0 13 -4 24 -10 24 -5 0
-10 9 -10 20 0 11 -4 20 -10 20 -5 0 -10 14 -10 30 0 17 -4 30 -10 30 -5 0
-10 11 -10 25 0 14 -4 25 -10 25 -5 0 -10 11 -10 25 0 14 -4 25 -10 25 -5 0
-10 14 -10 30 0 17 -4 30 -10 30 -5 0 -10 11 -10 25 0 14 -4 25 -8 25 -4 0
-14 21 -21 48 -8 26 -18 55 -23 65 -4 9 -12 25 -16 35 -5 9 -15 38 -23 65 -7
26 -17 47 -21 47 -4 0 -8 11 -8 24 0 14 -4 28 -10 31 -5 3 -10 13 -10 21 0 8
-9 33 -19 57 -11 23 -28 68 -39 100 -19 55 -19 57 -2 57 11 0 22 5 25 10 3 6
17 10 30 10 13 0 27 5 30 10 3 6 17 10 31 10 13 0 24 5 24 10 0 6 10 10 23 10
13 0 27 4 33 8 5 4 27 14 49 21 22 7 49 16 60 21 11 5 49 18 85 30 36 12 74
25 85 30 11 5 79 29 150 55 72 25 140 51 153 57 25 13 80 90 89 126 5 19 -73
252 -96 287 -4 6 -13 28 -20 50 -12 39 -26 74 -40 105 -4 8 -14 36 -22 63 -7
26 -17 47 -21 47 -4 0 -8 11 -8 25 0 14 -4 25 -10 25 -5 0 -10 11 -10 24 0 14
-4 28 -10 31 -5 3 -10 17 -10 31 0 13 -4 24 -10 24 -5 0 -10 9 -10 19 0 11 -4
23 -10 26 -5 3 -10 15 -10 26 0 19 -4 28 -28 76 -7 13 -12 30 -12 38 0 8 -4
15 -10 15 -5 0 -10 14 -10 30 0 17 -4 30 -10 30 -5 0 -10 11 -10 24 0 14 -4
28 -10 31 -5 3 -10 15 -10 26 0 10 -4 19 -10 19 -5 0 -10 14 -10 30 0 17 -4
30 -10 30 -5 0 -10 7 -10 16 0 16 -46 59 -65 59 -5 0 -16 4 -24 9 -16 10 -83
15 -123 9z"/>
</g>
</svg>
